<?xml version="1.0" encoding="UTF-8" standalone="no"?>
<!-- Generator: Adobe Illustrator 16.0.3, SVG Export Plug-In . SVG Version: 6.00 Build 0)  -->

<svg
   version="1.1"
   id="Capa_1"
   x="0px"
   y="0px"
   width="1619.9677"
   height="272.57043"
   viewBox="0 0 1619.9677 272.57043"
   enable-background="new 0 0 612 792"
   xml:space="preserve"
   sodipodi:docname="Logo de Tiendanube.svg"
   inkscape:version="1.1 (c68e22c387, 2021-05-23)"
   xmlns:inkscape="http://www.inkscape.org/namespaces/inkscape"
   xmlns:sodipodi="http://sodipodi.sourceforge.net/DTD/sodipodi-0.dtd"
   xmlns="http://www.w3.org/2000/svg"
   xmlns:svg="http://www.w3.org/2000/svg"><defs
   id="defs47" /><sodipodi:namedview
   id="namedview45"
   pagecolor="#ffffff"
   bordercolor="#666666"
   borderopacity="1.0"
   inkscape:pageshadow="2"
   inkscape:pageopacity="0.0"
   inkscape:pagecheckerboard="0"
   showgrid="false"
   fit-margin-top="0"
   fit-margin-left="0"
   fit-margin-right="0"
   fit-margin-bottom="0"
   inkscape:zoom="0.37140962"
   inkscape:cx="992.166"
   inkscape:cy="-205.97205"
   inkscape:window-width="1920"
   inkscape:window-height="1017"
   inkscape:window-x="1912"
   inkscape:window-y="-8"
   inkscape:window-maximized="1"
   inkscape:current-layer="Capa_1" />
<g
   id="g42"
   transform="translate(499.91269,-273.51633)">
	<g
   id="g40">
		
		<path
   id="path4"
   d="m -258.81836,273.5332 c -32.75297,-0.53992 -63.33936,11.88775 -91.2168,35.99219 -2.494,2.156 -4.31911,2.66275 -7.41211,1.46875 -16.804,-6.488 -34.22553,-8.33572 -52.01953,-5.76172 -56.83,8.22 -96.44726,60.18614 -89.69726,117.49414 7.95,67.496 77.06636,110.01763 140.81836,86.51563 3.597,-1.326 5.77893,-0.99071 8.71093,1.65429 25.664,23.149 55.95732,34.623 90.44532,35.125 6.38,0.284 12.69512,-0.39834 18.95312,-1.27734 74.695,-10.509 126.88596,-79.82572 115.25195,-154.63672 -8.174,-52.571 -38.0429,-89.54073 -87.8789,-107.67773 -15.73188,-5.72532 -31.06736,-8.65107 -45.95508,-8.89649 z m 1.22656,30.73242 c 48.49143,0.86517 94.39274,35.42718 102.78711,89.44336 9.383,60.37 -34.06498,116.1071 -94.70898,121.4961 -59.848,5.317 -111.9967,-40.17053 -114.59571,-100.14453 -0.17599,-4.063 -1.16689,-5.41332 -5.33789,-5.19532 -6.979,0.364 -14.00028,0.29454 -20.98828,0.0195 -3.583,-0.142 -4.43843,0.95551 -4.27343,4.47851 1.08,23.036 7.11806,44.57591 18.78906,64.50391 0.654,1.118 1.23309,2.28084 1.87109,3.46484 -38.125,12.638 -81.89054,-11.907 -92.93555,-51.875 -11.52499,-41.704 13.70316,-84.271 55.78516,-94.125 41.494,-9.717 82.88763,17.67741 90.89063,60.19141 0.553,2.94 1.13786,5.96592 1.00586,8.91992 -0.165,3.684 0.9177,4.84825 4.7207,4.65625 6.981,-0.35 14.01037,-0.40533 20.98437,0.0137 4.293,0.258 4.83324,-1.47131 4.61524,-5.07031 -1.724,-28.546 -12.62391,-52.86789 -33.62891,-72.33789 -3.787,-3.51 -2.93064,-4.77053 0.56836,-7.39453 19.83281,-14.86844 42.40961,-21.43818 64.45117,-21.04493 z"
   style="fill:#2c3356;fill-opacity:1" />
		<path
   id="path6"
   d="m 429.79102,319.13672 c -2.68446,0.1165 -3.6968,1.21722 -3.5918,4.63672 0.291,9.487 0.0957,18.99033 0.0957,28.48633 v 28.6289 c -18.845,-23.365 -54.53465,-24.48728 -76.59765,-6.36328 -27.148,22.3 -30.93949,66.61142 -8.02149,93.98242 21.512,25.692 62.46175,27.64975 83.34375,2.09375 0.135,-0.166 0.53939,-0.11409 1.27539,-0.24609 0,4.005 0.14322,7.94705 -0.0508,11.87305 -0.138,2.792 0.73858,3.80675 3.64258,3.71875 6.491,-0.196 13.00537,-0.32175 19.48437,0.0312 4.236,0.231 5.66371,-0.72238 5.59571,-5.35938 -0.301,-20.323 -0.13086,-40.65056 -0.13086,-60.97656 0,-31.988 -0.0477,-63.97685 0.0703,-95.96485 0.013,-3.389 -0.743,-4.6991 -4.375,-4.53711 -6.485,0.291 -13.00133,0.28296 -19.48633,0.002 -0.45337,-0.0196 -0.87041,-0.0225 -1.2539,-0.006 z m -38.94336,68.79492 c 20.551,-0.185 36.5822,16.02441 36.7832,37.19141 0.195,20.652 -15.85538,37.55476 -35.85938,37.75976 -19.977,0.203 -36.20768,-16.26198 -36.55468,-37.08398 -0.346,-20.696 15.64186,-37.68819 35.63086,-37.86719 z"
   style="fill:#2c3356;fill-opacity:1" />
		<path
   id="path8"
   d="m 864.72656,319.10352 c -2.97818,0.11548 -3.88387,1.44287 -3.85937,5.14062 0.194,28.991 0.10351,57.98456 0.10351,86.97656 0,23.494 0.0506,46.98652 -0.0644,70.47852 -0.015,3.095 0.5403,4.42048 4.0293,4.27148 6.819,-0.292 13.66528,-0.25572 20.48828,-0.0117 3.186,0.115 4.03851,-0.99042 3.85351,-3.98242 -0.23,-3.712 -0.0547,-7.44936 -0.0547,-11.44336 0.905,0.425 1.28993,0.48308 1.46093,0.70508 16.846,21.847 56.2636,24.81375 80.0586,0.59375 21.083,-21.46 24.48014,-58.29519 7.49414,-83.99219 -13.069,-19.77 -35.66297,-29.35022 -58.91797,-24.82422 -11.85,2.30601 -21.5697,8.35541 -30.0957,18.81641 0,-2.72 9.5e-4,-3.84942 0.002,-4.98242 0,-17.828 -0.0797,-35.65738 0.0723,-53.48438 0.028,-3.272 -0.84974,-4.34879 -4.17774,-4.21679 -6.322,0.251 -12.67337,0.34156 -18.98437,-0.0234 -0.51338,-0.0296 -0.98275,-0.038 -1.40821,-0.0215 z m 58.94727,68.82812 c 20.605,-0.184 36.50772,15.96403 36.63672,37.20703 0.126,20.869 -15.67438,37.56014 -35.73438,37.74414 -20.005,0.185 -36.3029,-16.37479 -36.5039,-37.09179 -0.203,-20.87 15.60556,-37.68238 35.60156,-37.85938 z"
   style="fill:#2c3356;fill-opacity:1" />
		<path
   id="path10"
   d="m 125.00391,361.66797 c -2.95423,-0.006 -5.949,0.21344 -8.96485,0.67187 -24.796997,3.769 -42.188169,17.44597 -49.701169,41.29297 -7.869,24.976 -4.428032,48.71999 14.792968,67.95899 15.825,15.839 35.819111,19.64206 57.287111,16.03906 16.935,-2.843 30.10769,-11.83758 39.42969,-26.39258 1.73,-2.701 2.21609,-4.25525 -1.50391,-5.65625 -4.647,-1.751 -9.21775,-3.89122 -13.46875,-6.44922 -4.528,-2.727 -7.04927,-2.15186 -10.32227,2.36914 -8.548,11.81 -20.89351,15.08689 -34.60351,12.08789 -13.339,-2.918 -22.370657,-11.10373 -26.097658,-24.67773 -1.043,-3.799 -0.562312,-5.10363 3.804688,-5.01563 13.819,0.277 27.6467,0.10157 41.4707,0.10157 14.323,0 28.6458,-0.0795 42.9668,0.0645 2.936,0.031 4.12548,-0.55934 4.02148,-3.77734 -0.193,-5.986 -0.10873,-11.95097 -1.05273,-17.91797 -4.67353,-29.5501 -29.5011,-50.64339 -58.05859,-50.69922 z m -1.5293,23.6543 c 14.537,-0.171 27.21009,9.03715 31.24609,22.53515 1.105,3.695 1.13002,5.604 -3.83398,5.375 -9.121,-0.421 -18.27697,-0.11914 -27.41797,-0.11914 -9.473,0 -18.94797,-0.1085 -28.417969,0.0625 -2.967,0.054 -3.710328,-0.72023 -2.986328,-3.61523 3.27,-13.09 17.411157,-24.07428 31.410157,-24.23828 z"
   style="fill:#2c3356;fill-opacity:1" />
		<path
   id="path12"
   d="m 1058.1328,361.59375 c -11.3193,0.26902 -22.8515,3.77463 -33.3008,11.07813 -21.9,15.306 -31.37981,44.1267 -23.7148,72.0957 6.977,25.455 28.0548,42.36176 56.1308,43.88476 23.777,1.291 43.3385,-7.01779 56.6485,-27.71679 1.768,-2.748 1.4717,-4.01421 -1.6153,-5.28321 -4.9099,-2.019 -9.847,-4.139 -14.373,-6.875 -4.187,-2.533 -6.2508,-1.65753 -9.0488,2.23047 -8.767,12.181 -21.2394,15.70228 -35.3594,12.48828 -13.547,-3.083 -22.4874,-11.55157 -25.9824,-25.39257 -0.868,-3.438 -0.062,-4.21679 3.3711,-4.17579 14.155,0.169 28.3117,0.0703 42.4687,0.0703 14.157,0 28.3129,-0.10288 42.4649,0.0781 3.259,0.04 4.3386,-0.86572 4.2246,-4.13672 -0.191,-5.487 -0.1724,-10.95068 -0.9414,-16.42968 -4.5095,-32.16047 -32.0455,-52.60352 -60.9727,-51.91602 z m 1.8789,23.74023 c 14.4199,-0.0505 27.7906,10.14582 30.8828,23.7461 0.592,2.604 0.813,4.16695 -2.959,4.12695 -19.441,-0.202 -38.8851,-0.0934 -58.3281,-0.10742 -0.646,-0.002 -1.2934,-0.16205 -1.9394,-0.24805 1.679,-14.55 15.4283,-26.70947 30.9453,-27.48047 0.467,-0.0232 0.9333,-0.0355 1.3984,-0.0371 z"
   style="fill:#2c3356;fill-opacity:1" />
		<path
   id="path14"
   d="m 527.74805,361.77734 c -2.57561,-0.0146 -5.16316,0.11757 -7.75391,0.38282 -20.235,2.073 -35.53495,11.32379 -43.25195,31.09179 -1.183,3.031 -0.53353,4.07838 2.48047,4.73438 5.032,1.095 10.08603,2.2379 14.95703,3.8789 4.993,1.682 7.827,1.44311 10.375,-4.33789 4.513,-10.239 16.21176,-14.36922 28.13476,-11.32422 9.476,2.421 14.52935,9.92165 14.40235,20.68165 -0.034,2.939 -1.21703,3.64754 -3.70703,3.93554 -8.598,0.995 -17.18544,2.10136 -25.77344,3.19336 -10.97,1.394 -21.69678,3.67447 -31.05078,9.98047 -12.599,8.492 -16.60275,20.80277 -14.59375,35.25977 1.87,13.467 9.92723,22.18931 22.49023,26.82031 16.09,5.932 39.60825,2.82706 53.65625,-14.83594 0,4.427 0.14403,7.53981 -0.043,10.63281 -0.173,2.869 0.50574,4.21985 3.80274,4.08985 6.489,-0.257 12.99918,-0.21267 19.49218,-0.0137 2.894,0.088 3.63014,-0.8905 3.61915,-3.6875 -0.104,-25.996 0.29606,-52.00129 -0.21094,-77.98829 -0.338,-17.288 -7.74753,-30.83793 -24.39453,-37.96093 -7.284,-3.117 -14.90404,-4.48928 -22.63086,-4.53321 z m 17.29687,70.13868 c 2.21478,0.0953 2.18891,1.53442 2.11328,6.20117 0.227,22.582 -22.56079,30.73054 -36.96679,26.68554 -5.296,-1.486 -9.19138,-4.83664 -10.10938,-10.55664 -0.986,-6.148 1.16766,-11.0954 6.47266,-14.5664 6.702,-4.387 14.51362,-4.40724 22.01562,-5.61524 3.938,-0.635 7.92033,-1.00604 11.86133,-1.62304 2.13844,-0.335 3.60656,-0.5687 4.61328,-0.52539 z"
   style="fill:#2c3356;fill-opacity:1" />
		<path
   fill-rule="evenodd"
   clip-rule="evenodd"
   fill="#2c3356"
   d="m 227.998,380.55 c 11.725,-15.854 26.955,-20.385 44.395,-18.201 21.906,2.741 36.217,17.887 38.562,40.056 0.524,4.959 0.769,9.97 0.788,14.958 0.084,21.333 -0.026,42.667 0.102,63.999 0.02,3.278 -0.533,4.782 -4.287,4.612 -6.819,-0.311 -13.67,-0.274 -20.493,-0.009 -3.381,0.131 -4.121,-1.026 -4.101,-4.219 0.136,-20.499 0.08,-40.999 0.057,-61.499 -0.003,-2.663 0.061,-5.36 -0.312,-7.984 -2.151,-15.198 -10.796,-23.317 -25.31,-23.944 -13.969,-0.604 -25.189,8.551 -28.293,23.154 -0.797,3.752 -1.145,7.553 -1.133,11.411 0.057,19.5 -0.093,39.001 0.127,58.498 0.043,3.868 -1.1,4.753 -4.744,4.589 -6.653,-0.3 -13.338,-0.28 -19.993,-0.005 -3.428,0.143 -4.137,-1.098 -4.129,-4.263 0.094,-37.5 0.109,-75 -0.019,-112.499 -0.013,-3.56 1.045,-4.518 4.487,-4.393 6.99,0.252 13.999,0.188 20.995,0.018 2.627,-0.063 3.513,0.705 3.354,3.356 -0.215,3.643 -0.053,7.309 -0.053,12.365 z"
   id="path16" />
		<path
   fill-rule="evenodd"
   clip-rule="evenodd"
   fill="#2c3356"
   d="m 626.292,379.281 c 2.266,-0.56 2.818,-2.304 3.854,-3.474 17.835,-20.138 54.755,-18.452 70.457,3.315 6.449,8.94 9.201,19.218 9.312,30.046 0.247,24.319 0.04,48.643 0.191,72.963 0.02,3.186 -0.977,3.915 -3.971,3.821 -6.823,-0.215 -13.668,-0.282 -20.484,0.018 -3.697,0.163 -4.363,-1.245 -4.341,-4.579 0.136,-20.322 0.085,-40.646 0.053,-60.97 -0.007,-4.156 -0.089,-8.3 -1.104,-12.399 -2.562,-10.343 -8.608,-17.153 -19.333,-19.032 -11.807,-2.068 -21.832,0.926 -28.79,11.283 -4.635,6.898 -5.798,14.793 -5.824,22.883 -0.061,19.157 -0.19,38.317 0.104,57.47 0.071,4.6 -1.343,5.599 -5.591,5.354 -6.309,-0.363 -12.658,-0.219 -18.983,-0.038 -2.854,0.082 -4.093,-0.419 -4.082,-3.737 0.12,-37.98 0.099,-75.962 0.028,-113.942 -0.004,-2.532 0.586,-3.5 3.302,-3.435 7.325,0.177 14.661,0.179 21.986,0 2.772,-0.067 3.37,1.027 3.257,3.496 -0.163,3.583 -0.041,7.181 -0.041,10.957 z"
   id="path18" />
		<path
   fill-rule="evenodd"
   clip-rule="evenodd"
   fill="#2c3356"
   d="m 838.069,406.981 c -0.504,10.876 1.198,24.27 -0.792,37.495 -4.192,27.859 -21.498,43.114 -49.732,44.33 -8.216,0.354 -16.311,-0.574 -24.129,-3.174 -18.77,-6.24 -31.442,-22.517 -32.187,-43.817 -0.86,-24.628 -0.346,-49.304 -0.477,-73.958 -0.011,-1.979 0.349,-3.046 2.693,-3.011 7.662,0.115 15.329,0.168 22.988,-0.011 3.815,-0.09 2.753,2.505 2.758,4.403 0.049,19.991 -0.024,39.983 0.075,59.975 0.021,4.146 0.22,8.366 1.01,12.422 2.695,13.843 11.965,21.086 25.779,20.527 12.471,-0.503 21.22,-9.143 22.863,-22.791 0.437,-3.627 0.523,-7.313 0.533,-10.973 0.049,-19.825 0.066,-39.65 -0.025,-59.475 -0.013,-2.794 0.35,-4.242 3.723,-4.118 7.154,0.264 14.329,0.227 21.486,0.011 3.015,-0.091 3.511,1.095 3.484,3.748 -0.117,11.996 -0.05,23.991 -0.05,38.417 z"
   id="path20" />
		<path
   fill-rule="evenodd"
   clip-rule="evenodd"
   fill="#2c3356"
   d="m -18.222,437.242 c 0,14.819 -0.082,29.641 0.064,44.459 0.032,3.17 -0.705,4.396 -4.119,4.263 -6.817,-0.266 -13.661,-0.3 -20.475,0.01 -3.692,0.168 -4.302,-1.213 -4.287,-4.535 0.122,-29.14 -0.029,-58.281 0.18,-87.42 0.031,-4.257 -1.135,-5.468 -5.229,-5.065 -3.793,0.372 -7.657,-0.048 -11.479,0.123 -2.604,0.116 -3.915,-0.39 -3.792,-3.449 0.233,-5.819 0.2,-11.658 0.01,-17.479 -0.089,-2.719 0.903,-3.424 3.448,-3.309 3.988,0.182 8.025,-0.283 11.978,0.136 4.405,0.468 5.188,-1.306 5.051,-5.288 -0.304,-8.814 0.021,-17.649 -0.157,-26.471 -0.063,-3.067 0.501,-4.413 4.001,-4.271 7.148,0.291 14.319,0.189 21.476,0.034 2.641,-0.057 3.421,0.813 3.384,3.417 -0.135,9.323 0.155,18.656 -0.151,27.971 -0.128,3.894 1.162,4.695 4.783,4.626 5.081,-0.098 12.071,-2.32 14.751,0.913 2.565,3.096 0.81,9.822 0.843,14.954 0.053,8.172 0.014,8.172 -8.395,8.172 -11.883,0 -11.883,0 -11.883,11.743 -0.002,12.155 -0.002,24.31 -0.002,36.466 z"
   id="path22" />
		<path
   fill-rule="evenodd"
   clip-rule="evenodd"
   fill="#2c3356"
   d="m 46.163,425.47 c 0,18.482 -0.091,36.966 0.076,55.446 0.033,3.684 -0.586,5.324 -4.793,5.074 -6.637,-0.395 -13.316,-0.205 -19.974,-0.056 -2.648,0.06 -3.832,-0.477 -3.825,-3.502 0.093,-38.13 0.077,-76.26 0.022,-114.39 -0.003,-2.281 0.523,-3.254 3.029,-3.206 7.49,0.143 14.99,0.213 22.476,-0.019 3.63,-0.111 2.984,2.126 2.985,4.206 0.006,18.817 0.004,37.632 0.004,56.447 z"
   id="path24" />
		<path
   fill-rule="evenodd"
   clip-rule="evenodd"
   fill="#2c3356"
   d="m 49.371,329.751 c -0.101,9.966 -7.847,17.438 -17.939,17.303 -9.523,-0.127 -17.355,-8.101 -17.3,-17.613 0.058,-9.805 8.026,-17.656 17.834,-17.571 9.923,0.085 17.506,7.876 17.405,17.881 z"
   id="path26" />
		
		
		
		
		
		
	</g>
</g>
</svg>
